<?xml version="1.0" encoding="UTF-8"?>
<svg version="1.1" xmlns="http://www.w3.org/2000/svg" width="1024" height="1024">
<path d="M0 0 C1.20970459 0.00523682 2.41940918 0.01047363 3.66577148 0.01586914 C4.97094727 0.0190918 6.27612305 0.02231445 7.62084961 0.02563477 C9.00952213 0.03399138 10.39819401 0.04245634 11.78686523 0.05102539 C13.17944179 0.05603873 14.57202005 0.06060193 15.96459961 0.06469727 C19.38456394 0.07653105 22.80444367 0.09301659 26.22436523 0.11352539 C26.22436523 0.77352539 26.22436523 1.43352539 26.22436523 2.11352539 C27.80217773 2.08258789 27.80217773 2.08258789 29.41186523 2.05102539 C32.55141427 2.10249341 35.19319919 2.37869726 38.22436523 3.11352539 C38.22436523 3.77352539 38.22436523 4.43352539 38.22436523 5.11352539 C39.19374023 5.19602539 40.16311523 5.27852539 41.16186523 5.36352539 C45.89555625 6.01343789 49.96420931 8.03657862 54.22436523 10.11352539 C54.22436523 10.77352539 54.22436523 11.43352539 54.22436523 12.11352539 C55.87436523 12.44352539 57.52436523 12.77352539 59.22436523 13.11352539 C59.22436523 13.77352539 59.22436523 14.43352539 59.22436523 15.11352539 C61.20436523 15.60852539 61.20436523 15.60852539 63.22436523 16.11352539 C63.22436523 16.77352539 63.22436523 17.43352539 63.22436523 18.11352539 C63.82249023 18.21665039 64.42061523 18.31977539 65.03686523 18.42602539 C67.53694809 19.21176572 68.59971606 20.08271392 70.22436523 22.11352539 C70.22436523 22.77352539 70.22436523 23.43352539 70.22436523 24.11352539 C70.82249023 24.38165039 71.42061523 24.64977539 72.03686523 24.92602539 C74.22284377 26.11269945 75.63769117 27.20951652 77.22436523 29.11352539 C77.22436523 29.77352539 77.22436523 30.43352539 77.22436523 31.11352539 C77.88436523 31.11352539 78.54436523 31.11352539 79.22436523 31.11352539 C79.55436523 31.77352539 79.88436523 32.43352539 80.22436523 33.11352539 C85.01409733 33.34780852 85.01409733 33.34780852 89.22436523 31.11352539 C96.42206272 28.33259681 103.54438941 27.94995589 111.16186523 27.98852539 C111.92176758 27.9846582 112.68166992 27.98079102 113.46459961 27.97680664 C120.30630735 27.98849188 126.9144486 28.24381171 133.28686523 30.98852539 C134.13249023 31.34946289 134.97811523 31.71040039 135.84936523 32.08227539 C136.63311523 32.42258789 137.41686523 32.76290039 138.22436523 33.11352539 C139.39999023 33.56727539 140.57561523 34.02102539 141.78686523 34.48852539 C150.45387831 38.58565884 157.2907156 44.57850021 164.22436523 51.11352539 C164.79928711 51.6355957 165.37420898 52.15766602 165.96655273 52.69555664 C167.34936523 53.98852539 167.34936523 53.98852539 169.22436523 56.11352539 C169.22436523 57.10352539 169.22436523 58.09352539 169.22436523 59.11352539 C170.21436523 59.44352539 171.20436523 59.77352539 172.22436523 60.11352539 C172.55436523 60.77352539 172.88436523 61.43352539 173.22436523 62.11352539 C176.86391998 63.91059609 180.15190271 64.41165955 184.16186523 64.80102539 C192.07787858 65.89694943 198.34734981 69.25744778 205.22436523 73.11352539 C205.22436523 73.77352539 205.22436523 74.43352539 205.22436523 75.11352539 C206.05967773 75.20633789 206.05967773 75.20633789 206.91186523 75.30102539 C210.22522996 76.46518056 211.92911819 78.50810983 214.22436523 81.11352539 C214.55436523 82.10352539 214.88436523 83.09352539 215.22436523 84.11352539 C216.21436523 84.44352539 217.20436523 84.77352539 218.22436523 85.11352539 C219.41186523 88.17602539 219.41186523 88.17602539 220.22436523 91.11352539 C220.88436523 91.11352539 221.54436523 91.11352539 222.22436523 91.11352539 C227.0326245 97.95531723 228.36752076 104.75208279 229.64624023 112.83227539 C229.87260846 115.95299691 229.87260846 115.95299691 231.22436523 117.11352539 C232.03655414 129.67121543 230.82741196 141.67397165 225.22436523 153.11352539 C224.78092773 154.03520508 224.33749023 154.95688477 223.88061523 155.90649414 C222.16097165 159.2362757 220.2705851 162.3494381 218.22436523 165.48852539 C217.54374023 166.54813477 216.86311523 167.60774414 216.16186523 168.69946289 C215.52249023 169.49610352 214.88311523 170.29274414 214.22436523 171.11352539 C213.23436523 171.11352539 212.24436523 171.11352539 211.22436523 171.11352539 C210.93561523 171.73227539 210.64686523 172.35102539 210.34936523 172.98852539 C209.22436523 175.11352539 209.22436523 175.11352539 207.22436523 177.11352539 C206.91797934 179.84787501 206.71303163 182.4963236 206.59936523 185.23852539 C206.56069336 185.99262695 206.52202148 186.74672852 206.48217773 187.52368164 C206.38785492 189.38655723 206.30501861 191.25000794 206.22436523 193.11352539 C206.88676208 193.10686356 207.54915894 193.10020172 208.23162842 193.09333801 C215.17560941 193.0265561 222.11949797 192.98154816 229.0637207 192.94873047 C231.64937043 192.93371827 234.23499502 192.91330226 236.82055664 192.88720703 C240.55418128 192.85048994 244.2874669 192.83372265 248.02124023 192.82055664 C249.16236267 192.80507278 250.30348511 192.78958893 251.47918701 192.77363586 C262.35841426 192.77139529 272.04068476 194.96429855 281.66186523 200.05102539 C282.32895508 200.38553711 282.99604492 200.72004883 283.68334961 201.06469727 C287.54466356 203.04691482 291.01157968 205.14835337 294.22436523 208.11352539 C294.22436523 208.77352539 294.22436523 209.43352539 294.22436523 210.11352539 C295.54436523 210.44352539 296.86436523 210.77352539 298.22436523 211.11352539 C298.22436523 211.77352539 298.22436523 212.43352539 298.22436523 213.11352539 C299.21436523 213.44352539 300.20436523 213.77352539 301.22436523 214.11352539 C310.62426439 224.41232201 317.45776021 237.10982658 317.22436523 251.11352539 C317.88436523 251.11352539 318.54436523 251.11352539 319.22436523 251.11352539 C319.24769361 268.69806657 319.26534411 286.28260293 319.27617741 303.86715603 C319.28134049 312.03139703 319.28838343 320.19562844 319.29980469 328.35986328 C319.30975114 335.47323823 319.31621857 342.58660624 319.31845373 349.69998795 C319.3197609 353.46878263 319.32284717 357.23755742 319.33009529 361.00634575 C319.33810839 365.20671355 319.3383564 369.40704647 319.33789062 373.60742188 C319.3414859 374.8661763 319.34508118 376.12493073 319.3487854 377.42182922 C319.34741074 378.55911469 319.34603607 379.69640015 319.34461975 380.8681488 C319.34600244 382.36007075 319.34600244 382.36007075 319.34741306 383.88213253 C319.22436523 386.11352539 319.22436523 386.11352539 318.22436523 387.11352539 C317.80792339 389.21371052 317.41683221 391.31893581 317.03686523 393.42602539 C314.17022723 406.96368909 306.6048611 419.82801854 296.22436523 429.11352539 C295.56436523 429.11352539 294.90436523 429.11352539 294.22436523 429.11352539 C293.89436523 430.10352539 293.56436523 431.09352539 293.22436523 432.11352539 C291.16186523 432.80102539 291.16186523 432.80102539 289.22436523 433.11352539 C289.22436523 433.77352539 289.22436523 434.43352539 289.22436523 435.11352539 C287.57436523 435.44352539 285.92436523 435.77352539 284.22436523 436.11352539 C283.89436523 437.10352539 283.56436523 438.09352539 283.22436523 439.11352539 C282.23436523 439.11352539 281.24436523 439.11352539 280.22436523 439.11352539 C280.22436523 439.77352539 280.22436523 440.43352539 280.22436523 441.11352539 C278.66656191 441.79109421 277.10286427 442.45511996 275.53686523 443.11352539 C274.66674805 443.48477539 273.79663086 443.85602539 272.90014648 444.23852539 C270.16716503 445.13223027 268.07735589 445.27802215 265.22436523 445.11352539 C265.22436523 445.77352539 265.22436523 446.43352539 265.22436523 447.11352539 C264.09256836 447.24629883 262.96077148 447.37907227 261.79467773 447.51586914 C260.31288344 447.69405959 258.83111387 447.87245568 257.34936523 448.05102539 C256.60299805 448.13803711 255.85663086 448.22504883 255.08764648 448.31469727 C251.02904214 448.74678602 251.02904214 448.74678602 247.22436523 450.11352539 C245.08159753 450.21109966 242.93575867 450.24429685 240.79077148 450.24633789 C239.50235352 450.24762695 238.21393555 450.24891602 236.88647461 450.25024414 C236.21382568 450.24814941 235.54117676 450.24605469 234.84814453 450.24389648 C232.79834559 450.23855531 230.74876664 450.24384085 228.69897461 450.25024414 C226.76441406 450.24831055 226.76441406 450.24831055 224.79077148 450.24633789 C223.01101929 450.244646 223.01101929 450.244646 221.1953125 450.24291992 C218.22436523 450.11352539 218.22436523 450.11352539 215.22436523 449.11352539 C215.23483887 450.11617432 215.2453125 451.11882324 215.25610352 452.15185547 C215.29269099 455.92216325 215.31540458 459.69245582 215.33422852 463.46289062 C215.3441988 465.08531343 215.35777993 466.70771868 215.37524414 468.33007812 C215.58577849 488.41133939 211.91347579 504.99492549 199.22436523 521.11352539 C198.56436523 521.11352539 197.90436523 521.11352539 197.22436523 521.11352539 C197.05936523 521.79415039 196.89436523 522.47477539 196.72436523 523.17602539 C193.57791257 529.33782852 187.08454822 533.62532123 181.22436523 537.11352539 C180.56436523 537.11352539 179.90436523 537.11352539 179.22436523 537.11352539 C179.22436523 537.77352539 179.22436523 538.43352539 179.22436523 539.11352539 C167.26145698 545.55042019 167.26145698 545.55042019 160.45483398 546.69165039 C158.05860479 547.09354384 158.05860479 547.09354384 155.18300152 548.12359905 C150.67553348 549.41583595 146.31705485 549.39437534 141.65571594 549.3742218 C140.71081761 549.37804735 139.76591928 549.3818729 138.79238766 549.38581437 C135.63594874 549.39610752 132.47969298 549.39215915 129.32324219 549.38818359 C127.05599296 549.39253219 124.78874521 549.39771584 122.52149963 549.40367126 C116.36839553 549.41705894 110.21535286 549.41764 104.06223702 549.41510797 C98.92086773 549.41403775 93.77951083 549.41892312 88.6381442 549.42371339 C75.80988705 549.43544278 62.98167398 549.43458404 50.15341624 549.42815658 C39.03304099 549.42299242 27.91275347 549.43423072 16.79239557 549.4532548 C5.35637786 549.4726678 -6.07958226 549.48059203 -17.51561958 549.47713155 C-23.92890313 549.47532133 -30.3421064 549.47792852 -36.75537682 549.49184608 C-42.79073084 549.50445318 -48.82590992 549.50245293 -54.86126137 549.4894352 C-57.07026861 549.48707587 -59.27928826 549.4897809 -61.48828125 549.49805832 C-82.97990848 549.57275145 -101.13975184 546.05501283 -117.77563477 531.11352539 C-118.12110352 530.39551758 -118.46657227 529.67750977 -118.82250977 528.93774414 C-119.13704102 528.33575195 -119.45157227 527.73375977 -119.77563477 527.11352539 C-121.10628069 526.76962088 -122.43977685 526.43659276 -123.77563477 526.11352539 C-125.15454102 524.37133789 -125.15454102 524.37133789 -126.33813477 522.23852539 C-127.91438988 519.43744253 -129.4612738 517.33887247 -131.77563477 515.11352539 C-133.36477035 512.43708652 -133.77563477 511.29551979 -133.77563477 508.11352539 C-134.43563477 508.11352539 -135.09563477 508.11352539 -135.77563477 508.11352539 C-145.74709172 485.54454076 -142.76079208 460.92729914 -142.15454102 436.84399414 C-142.0896338 434.22846072 -142.02476941 431.61292624 -141.95994568 428.99739075 C-141.82454245 423.55030186 -141.68711364 418.10326639 -141.54882812 412.65625 C-141.38912981 406.36335571 -141.23444184 400.07035106 -141.08196121 393.77727813 C-140.93434569 387.69562094 -140.78165854 381.61410101 -140.62705803 375.53261757 C-140.56216856 372.95337962 -140.49879434 370.37410309 -140.43695259 367.79479027 C-140.3505014 364.20714323 -140.25826977 360.61969007 -140.16455078 357.03222656 C-140.14009384 355.96476196 -140.1156369 354.89729736 -140.09043884 353.79748535 C-140.06382172 352.82361374 -140.03720459 351.84974213 -140.00978088 350.84635925 C-139.98857965 349.99973315 -139.96737841 349.15310705 -139.94553471 348.28082561 C-139.77563477 346.11352539 -139.77563477 346.11352539 -138.77563477 343.11352539 C-138.65415092 341.52897942 -138.58532027 339.94012707 -138.54821777 338.35136414 C-138.52304581 337.37145508 -138.49787384 336.39154602 -138.47193909 335.38194275 C-138.43761024 333.77120628 -138.43761024 333.77120628 -138.40258789 332.12792969 C-138.37478745 330.99596161 -138.346987 329.86399353 -138.31834412 328.69772339 C-138.25847694 326.23579911 -138.20074751 323.77382215 -138.1448822 321.31180382 C-138.05638697 317.41582874 -137.96223653 313.52002712 -137.86657715 309.6242218 C-137.68134098 302.05328716 -137.50263779 294.48220585 -137.32511139 286.91108704 C-137.08406514 276.63103142 -136.84016971 266.35106031 -136.58811951 256.07126808 C-136.49546592 252.2325374 -136.40796945 248.39371118 -136.32067871 244.55485535 C-136.26359213 242.19899916 -136.20627227 239.84314861 -136.14868164 237.48730469 C-136.12579575 236.41955307 -136.10290985 235.35180145 -136.07933044 234.25169373 C-135.95655321 229.43088828 -135.6637409 224.86427451 -134.77563477 220.11352539 C-134.66963326 218.35839228 -134.60154696 216.60058304 -134.5703125 214.8425293 C-134.55036728 213.84194489 -134.53042206 212.84136047 -134.50987244 211.81045532 C-134.49315994 210.74773407 -134.47644745 209.68501282 -134.45922852 208.59008789 C-134.43844742 207.48877533 -134.41766632 206.38746277 -134.39625549 205.2527771 C-134.33107286 201.74808766 -134.2720208 198.24332573 -134.21313477 194.73852539 C-134.16991978 192.35700759 -134.12630455 189.97549702 -134.08227539 187.59399414 C-133.97542364 181.76724699 -133.87360009 175.94042836 -133.77563477 170.11352539 C-134.43563477 170.11352539 -135.09563477 170.11352539 -135.77563477 170.11352539 C-136.76563477 167.63852539 -136.76563477 167.63852539 -137.77563477 165.11352539 C-138.43563477 165.11352539 -139.09563477 165.11352539 -139.77563477 165.11352539 C-142.77563477 160.72891001 -142.77563477 160.72891001 -142.77563477 158.11352539 C-143.43563477 158.11352539 -144.09563477 158.11352539 -144.77563477 158.11352539 C-148.51246242 149.61753044 -151.39757948 141.84214309 -152.45141602 132.52758789 C-152.5199545 130.16697493 -152.5199545 130.16697493 -153.77563477 129.11352539 C-153.8754469 126.43621159 -153.91443352 123.79048365 -153.90063477 121.11352539 C-153.90450195 120.36329102 -153.90836914 119.61305664 -153.91235352 118.84008789 C-153.9022453 113.24013592 -153.9022453 113.24013592 -152.77563477 112.11352539 C-152.46270645 110.37550459 -152.15473204 108.63641539 -151.87451172 106.89282227 C-150.59546763 98.99479216 -148.58758753 92.22515269 -144.77563477 85.11352539 C-144.11563477 85.11352539 -143.45563477 85.11352539 -142.77563477 85.11352539 C-142.6712207 84.55149414 -142.56680664 83.98946289 -142.45922852 83.41040039 C-141.64950241 80.68972068 -140.41360138 78.72094732 -138.83813477 76.36352539 C-138.31348633 75.56430664 -137.78883789 74.76508789 -137.24829102 73.94165039 C-136.76231445 73.33836914 -136.27633789 72.73508789 -135.77563477 72.11352539 C-135.11563477 72.11352539 -134.45563477 72.11352539 -133.77563477 72.11352539 C-133.56938477 71.55149414 -133.36313477 70.98946289 -133.15063477 70.41040039 C-131.28221533 67.28929065 -128.67177531 65.46049508 -125.77563477 63.36352539 C-125.22907227 62.95231445 -124.68250977 62.54110352 -124.11938477 62.11743164 C-120.04764473 59.11352539 -120.04764473 59.11352539 -117.77563477 59.11352539 C-117.77563477 58.45352539 -117.77563477 57.79352539 -117.77563477 57.11352539 C-116.53102694 56.43684541 -115.2796658 55.7725782 -114.02563477 55.11352539 C-113.32954102 54.74227539 -112.63344727 54.37102539 -111.91625977 53.98852539 C-109.77563477 53.11352539 -109.77563477 53.11352539 -105.77563477 53.11352539 C-105.77563477 52.45352539 -105.77563477 51.79352539 -105.77563477 51.11352539 C-104.81850586 50.91436523 -104.81850586 50.91436523 -103.84204102 50.71118164 C-103.01575195 50.53458008 -102.18946289 50.35797852 -101.33813477 50.17602539 C-100.51442383 50.00200195 -99.69071289 49.82797852 -98.84204102 49.64868164 C-96.79902273 49.30599545 -96.79902273 49.30599545 -95.77563477 48.11352539 C-91.57865703 47.25583239 -87.73471876 47.08510334 -83.45532227 47.26196289 C-82.50786133 47.29676758 -81.56040039 47.33157227 -80.58422852 47.36743164 C-78.6195988 47.44852821 -76.65579991 47.55292025 -74.69360352 47.67993164 C-69.43038048 47.99332229 -69.43038048 47.99332229 -65.05395508 45.52856445 C-63.53619388 43.38516188 -63.53619388 43.38516188 -61.77563477 40.11352539 C-61.11563477 40.11352539 -60.45563477 40.11352539 -59.77563477 40.11352539 C-59.73438477 39.43290039 -59.69313477 38.75227539 -59.65063477 38.05102539 C-58.39178692 33.82489333 -55.758845 31.2766277 -52.77563477 28.11352539 C-52.05375977 27.30915039 -51.33188477 26.50477539 -50.58813477 25.67602539 C-48.77563477 24.11352539 -48.77563477 24.11352539 -45.77563477 24.11352539 C-45.54875977 23.49477539 -45.32188477 22.87602539 -45.08813477 22.23852539 C-43.39633642 19.4994233 -41.78319316 19.06328067 -38.77563477 18.11352539 C-38.77563477 17.45352539 -38.77563477 16.79352539 -38.77563477 16.11352539 C-28.89071981 8.89116011 -17.77868634 3.40906791 -5.63891602 1.47290039 C-2.93070826 0.95056263 -3.07255616 0.12566968 0 0 Z M-7.77563477 31.11352539 C-9.10475159 31.46329298 -10.43646216 31.80448556 -11.77563477 32.11352539 C-11.77563477 32.77352539 -11.77563477 33.43352539 -11.77563477 34.11352539 C-12.48977539 34.20375977 -13.20391602 34.29399414 -13.93969727 34.38696289 C-24.76781535 37.16110885 -33.79843261 48.22904901 -39.70922852 57.19555664 C-40.93761649 59.0391053 -40.93761649 59.0391053 -40.77563477 61.11352539 C-41.43563477 61.11352539 -42.09563477 61.11352539 -42.77563477 61.11352539 C-43.02958008 61.84958008 -43.28352539 62.58563477 -43.54516602 63.34399414 C-43.8893457 64.31981445 -44.23352539 65.29563477 -44.58813477 66.30102539 C-44.92458008 67.26395508 -45.26102539 68.22688477 -45.60766602 69.21899414 C-47.4290042 73.73274529 -48.74662083 76.48804633 -52.96313477 79.05102539 C-57.86511542 80.41715115 -59.97124869 79.60997351 -64.77563477 78.11352539 C-66.09563477 78.11352539 -67.41563477 78.11352539 -68.77563477 78.11352539 C-68.77563477 77.45352539 -68.77563477 76.79352539 -68.77563477 76.11352539 C-82.4708243 74.95442732 -95.06542793 74.52604038 -106.77563477 83.11352539 C-106.77563477 83.77352539 -106.77563477 84.43352539 -106.77563477 85.11352539 C-107.37375977 85.40227539 -107.97188477 85.69102539 -108.58813477 85.98852539 C-110.96891268 87.16094565 -110.96891268 87.16094565 -113.77563477 89.11352539 C-113.77563477 89.77352539 -113.77563477 90.43352539 -113.77563477 91.11352539 C-115.26063477 91.60852539 -115.26063477 91.60852539 -116.77563477 92.11352539 C-118.08899059 94.37460345 -119.23531606 96.56623052 -120.33813477 98.92602539 C-120.64170898 99.55573242 -120.9452832 100.18543945 -121.25805664 100.83422852 C-122.10405405 102.59073295 -122.94016363 104.35198986 -123.77563477 106.11352539 C-124.16235352 106.81735352 -124.54907227 107.52118164 -124.94750977 108.24633789 C-128.41996007 116.07573055 -127.3008588 127.40646694 -124.73266602 135.33227539 C-122.67552869 140.54790972 -120.87979738 144.24388635 -116.77563477 148.11352539 C-116.34250977 148.91790039 -115.90938477 149.72227539 -115.46313477 150.55102539 C-113.2106361 153.97148633 -110.32656958 156.10275508 -106.77563477 158.11352539 C-106.11563477 158.11352539 -105.45563477 158.11352539 -104.77563477 158.11352539 C-104.77563477 158.77352539 -104.77563477 159.43352539 -104.77563477 160.11352539 C-102.79563477 160.44352539 -100.81563477 160.77352539 -98.77563477 161.11352539 C-98.77563477 161.77352539 -98.77563477 162.43352539 -98.77563477 163.11352539 C-90.76137559 166.39488507 -83.31078758 166.65271694 -74.71313477 166.80102539 C-73.35698345 166.83426837 -72.00086223 166.86876424 -70.64477539 166.90454102 C-67.3551454 166.98648909 -64.06576422 167.05581501 -60.77563477 167.11352539 C-60.77563477 167.77352539 -60.77563477 168.43352539 -60.77563477 169.11352539 C-59.78563477 169.44352539 -58.79563477 169.77352539 -57.77563477 170.11352539 C-51.15896633 176.89157598 -50.54580625 183.1812875 -50.6003418 192.41616821 C-50.61693848 193.60793671 -50.63353516 194.7997052 -50.65063477 196.02758789 C-50.65820801 197.27422211 -50.66578125 198.52085632 -50.67358398 199.80526733 C-50.69795055 203.78314084 -50.73467942 207.7607976 -50.77563477 211.73852539 C-50.8291936 216.9598737 -50.86905966 222.18106512 -50.90063477 227.40258789 C-50.91723145 228.582211 -50.93382812 229.76183411 -50.95092773 230.97720337 C-51.08518389 246.92086704 -51.08518389 246.92086704 -44.77563477 261.11352539 C-41.73814583 264.20261227 -41.73814583 264.20261227 -37.77563477 265.11352539 C-37.77563477 265.77352539 -37.77563477 266.43352539 -37.77563477 267.11352539 C-31.6362339 270.2485386 -26.18330673 271.38750367 -19.42407227 269.43383789 C-17.51570823 268.72578763 -15.64123451 267.92760528 -13.77563477 267.11352539 C-13.77563477 266.45352539 -13.77563477 265.79352539 -13.77563477 265.11352539 C-12.63868164 264.75194336 -12.63868164 264.75194336 -11.47875977 264.38305664 C-8.36555095 262.92092822 -7.35808203 261.67025203 -5.52563477 258.80102539 C-5.02547852 258.04176758 -4.52532227 257.28250977 -4.01000977 256.50024414 C-1.72170924 252.0757137 -1.64930799 247.71169156 -1.63378906 242.79785156 C-1.62675461 241.54272263 -1.61972015 240.28759369 -1.61247253 238.99443054 C-1.61065664 238.32863165 -1.60884075 237.66283276 -1.60696983 236.97685814 C-1.59975576 234.87805312 -1.58405286 232.77947538 -1.56562805 230.68074036 C-1.51339106 224.71590292 -1.46521874 218.75119409 -1.44970703 212.78613281 C-1.43957841 209.12965153 -1.41013607 205.47375035 -1.36838722 201.81749916 C-1.35614542 200.43140377 -1.35094341 199.04522623 -1.35318565 197.6590786 C-1.36293026 189.66911237 -1.05290247 183.94605691 3.22436523 177.11352539 C3.51495316 176.4259465 3.80554108 175.73836761 4.10493469 175.029953 C5.51296413 172.61945373 6.71095476 172.26885011 9.22436523 171.11352539 C9.90009771 170.76665554 10.57583019 170.41978569 11.27203941 170.06240463 C18.85978285 166.57042521 26.08516386 166.53564977 34.31274414 166.56762695 C35.81174789 166.55887687 37.31074233 166.54838612 38.8097229 166.53630066 C42.85039947 166.50859535 46.89076894 166.50503252 50.93152666 166.50602055 C55.16498107 166.50287805 59.39829986 166.47723217 63.63168335 166.45404053 C71.6353572 166.41357896 79.63894977 166.39316305 87.64271009 166.38006663 C96.76013257 166.36416313 105.87741741 166.32573348 114.9947598 166.28547335 C133.73791801 166.20320922 152.48106303 166.14903299 171.22436523 166.11352539 C171.22436523 165.45352539 171.22436523 164.79352539 171.22436523 164.11352539 C174.19436523 163.78352539 177.16436523 163.45352539 180.22436523 163.11352539 C180.22436523 162.45352539 180.22436523 161.79352539 180.22436523 161.11352539 C180.94624023 161.05165039 181.66811523 160.98977539 182.41186523 160.92602539 C187.98151998 159.31701402 191.31375361 153.9100461 194.89233398 149.56665039 C196.22436523 148.11352539 196.22436523 148.11352539 198.22436523 147.11352539 C203.85223251 137.98955874 204.91440674 127.54267043 203.22436523 117.11352539 C201.77198099 112.66980671 199.83907948 108.97631327 197.22436523 105.11352539 C196.6152832 104.17959961 196.6152832 104.17959961 195.99389648 103.22680664 C192.00228501 97.81837745 185.54238791 94.14248389 179.22436523 92.11352539 C175.86081462 91.61792977 172.48688842 91.3304839 169.09936523 91.05102539 C167.30482366 90.8965876 165.51053594 90.73916319 163.71655273 90.57836914 C162.92619629 90.51254639 162.13583984 90.44672363 161.3215332 90.37890625 C159.22436523 90.11352539 159.22436523 90.11352539 156.22436523 89.11352539 C155.16186523 86.80102539 155.16186523 86.80102539 154.22436523 84.11352539 C153.57222984 82.77302487 152.91056555 81.43691171 152.22436523 80.11352539 C151.56436523 80.11352539 150.90436523 80.11352539 150.22436523 80.11352539 C149.99749023 79.41227539 149.77061523 78.71102539 149.53686523 77.98852539 C147.88595236 74.37224004 145.93348173 72.02582563 143.22436523 69.11352539 C142.56436523 69.11352539 141.90436523 69.11352539 141.22436523 69.11352539 C141.22436523 68.45352539 141.22436523 67.79352539 141.22436523 67.11352539 C130.81034755 59.03536214 119.36683453 55.24316319 106.22436523 56.11352539 C100.26243593 57.00578692 94.80551108 58.88106705 89.22436523 61.11352539 C89.22436523 61.77352539 89.22436523 62.43352539 89.22436523 63.11352539 C87.90436523 63.44352539 86.58436523 63.77352539 85.22436523 64.11352539 C85.22436523 64.77352539 85.22436523 65.43352539 85.22436523 66.11352539 C84.41999023 66.25790039 83.61561523 66.40227539 82.78686523 66.55102539 C80.30332818 66.85487788 80.30332818 66.85487788 79.22436523 68.11352539 C72.20682137 68.81527978 72.20682137 68.81527978 68.59936523 66.23852539 C66.05066024 62.88496619 64.01293236 59.40329346 61.90795898 55.76196289 C59.18698696 51.48164032 55.93643868 47.57478307 52.22436523 44.11352539 C51.56436523 44.11352539 50.90436523 44.11352539 50.22436523 44.11352539 C50.22436523 43.45352539 50.22436523 42.79352539 50.22436523 42.11352539 C48.24949451 40.6955923 46.30412668 39.42262939 44.22436523 38.17602539 C43.63075195 37.81557129 43.03713867 37.45511719 42.42553711 37.08374023 C38.1091098 34.51572431 33.9900368 32.64534839 29.22436523 31.11352539 C28.48573242 30.77450195 27.74709961 30.43547852 26.98608398 30.08618164 C23.52113742 28.86585393 20.17325036 28.61038006 16.53686523 28.42602539 C15.82933105 28.38695068 15.12179687 28.34787598 14.39282227 28.30761719 C6.63123089 27.94387556 -0.44718115 28.32173354 -7.77563477 31.11352539 Z M-107.77563477 189.11352539 C-108.10563477 203.30352539 -108.43563477 217.49352539 -108.77563477 232.11352539 C-103.86688477 232.29915039 -98.95813477 232.48477539 -93.90063477 232.67602539 C-91.57863037 232.76799194 -91.57863037 232.76799194 -89.2097168 232.86181641 C-87.99654785 232.90491943 -86.78337891 232.94802246 -85.53344727 232.99243164 C-84.28708496 233.03956299 -83.04072266 233.08669434 -81.7565918 233.13525391 C-78.84735331 233.33300229 -78.84735331 233.33300229 -76.77563477 232.11352539 C-76.75095559 226.88078152 -76.73278474 221.64807136 -76.72070312 216.4152832 C-76.71566766 214.63435272 -76.70883896 212.85342639 -76.70019531 211.07250977 C-76.68809535 208.51585874 -76.68239867 205.95926227 -76.67797852 203.40258789 C-76.67281723 202.60358063 -76.66765594 201.80457336 -76.66233826 200.98135376 C-76.56224726 196.91660634 -76.56224726 196.91660634 -77.77563477 193.11352539 C-85.03563477 192.78352539 -92.29563477 192.45352539 -99.77563477 192.11352539 C-99.77563477 191.45352539 -99.77563477 190.79352539 -99.77563477 190.11352539 C-102.41563477 189.78352539 -105.05563477 189.45352539 -107.77563477 189.11352539 Z M178.22436523 190.11352539 C178.22436523 190.77352539 178.22436523 191.43352539 178.22436523 192.11352539 C177.06892354 192.1121427 177.06892354 192.1121427 175.89013958 192.11073208 C157.1624581 192.08866472 138.43477921 192.0721079 119.70708752 192.06171322 C110.65058615 192.05655305 101.59409346 192.04951564 92.53759766 192.03808594 C84.64558971 192.0281306 76.75358804 192.02166993 68.86157399 192.0194369 C64.68135604 192.01813124 60.50115604 192.0150545 56.32094383 192.00779533 C52.38859078 192.00102174 48.45626313 191.99891118 44.5239048 192.00041771 C43.07869962 192.00014199 41.63349361 191.99814479 40.18829346 191.99431992 C38.21877147 191.98936187 36.24923593 191.99113271 34.27970886 191.99327087 C32.62462956 191.99188818 32.62462956 191.99188818 30.93611431 191.99047756 C28.12706706 191.99434718 28.12706706 191.99434718 25.22436523 193.11352539 C25.22436523 205.98352539 25.22436523 218.85352539 25.22436523 232.11352539 C35.20411408 232.77884198 44.90811774 233.23724834 54.87060547 233.13525391 C56.26195949 233.12507294 57.65331717 233.11538364 59.04467773 233.10614014 C62.76892902 233.08004036 66.49309182 233.04719009 70.21727633 233.01299024 C74.12895611 232.9782624 78.04068252 232.94993343 81.95240784 232.92088318 C89.3361779 232.86509738 96.71988958 232.80367888 104.10359675 232.74016184 C112.5197118 232.66804355 120.93587314 232.60231854 129.35204399 232.53709137 C146.64287827 232.40294242 163.93363865 232.26089207 181.22436523 232.11352539 C181.24903991 226.45353516 181.26721312 220.79357607 181.27929688 215.13354492 C181.2843331 213.20710708 181.29116235 211.28067308 181.29980469 209.35424805 C181.31190131 206.58910171 181.31760056 203.82400581 181.32202148 201.05883789 C181.32718277 200.19420929 181.33234406 199.32958069 181.33766174 198.43875122 C181.46820412 194.14101537 181.46820412 194.14101537 180.22436523 190.11352539 C179.56436523 190.11352539 178.90436523 190.11352539 178.22436523 190.11352539 Z M208.22436523 221.11352539 C207.06024448 223.4417669 207.15241781 224.59191228 207.26269531 227.1730957 C207.2964325 228.03424988 207.33016968 228.89540405 207.3649292 229.78265381 C207.4074884 230.74262268 207.45004761 231.70259155 207.49389648 232.69165039 C207.57825387 234.84333169 207.66230106 236.99502516 207.74609375 239.14672852 C207.7933963 240.31598877 207.84069885 241.48524902 207.88943481 242.68994141 C208.14820478 249.13781843 208.38774803 255.58633962 208.61499023 262.03540039 C208.64006716 262.7470636 208.66514408 263.45872681 208.69098091 264.19195557 C209.17261739 278.06427376 209.4868199 291.93904895 209.77124023 305.81665039 C209.79309072 306.87882027 209.81494122 307.94099014 209.83745384 309.03534698 C210.05755149 319.78720955 210.26786 330.53923372 210.46723747 341.29150009 C210.54350974 345.36122232 210.6233397 349.43087021 210.70381927 353.50051117 C210.75858297 356.34601053 210.80796497 359.19157152 210.85723877 362.03717041 C210.89086132 363.75077888 210.92476006 365.46438196 210.95898438 367.17797852 C210.97095258 367.95875385 210.98292078 368.73952919 210.99525166 369.54396439 C211.00677599 373.45768936 211.00677599 373.45768936 212.22436523 377.11352539 C212.36968487 378.50089449 212.46036072 379.89422251 212.52148438 381.2878418 C212.56145035 382.14858307 212.60141632 383.00932434 212.64259338 383.89614868 C212.68117966 384.82639862 212.71976593 385.75664856 212.75952148 386.71508789 C212.80249863 387.66668793 212.84547577 388.61828796 212.88975525 389.59872437 C213.02636327 392.64515358 213.1566824 395.69181549 213.28686523 398.73852539 C213.37824877 400.80104375 213.47004041 402.86354406 213.56225586 404.92602539 C213.78769907 409.98832805 214.00750158 415.05084823 214.22436523 420.11352539 C240.48881247 421.76227988 240.48881247 421.76227988 265.22436523 415.11352539 C265.22436523 414.45352539 265.22436523 413.79352539 265.22436523 413.11352539 C265.79928711 413.01555664 266.37420898 412.91758789 266.96655273 412.81665039 C271.18003276 411.50449398 274.2226606 408.25407539 277.22436523 405.11352539 C278.75570902 402.39525747 278.75570902 402.39525747 279.22436523 400.11352539 C279.88436523 400.11352539 280.54436523 400.11352539 281.22436523 400.11352539 C283.51481538 395.30142638 283.51481538 395.30142638 284.22436523 390.11352539 C284.88436523 390.11352539 285.54436523 390.11352539 286.22436523 390.11352539 C287.02757043 386.57776225 287.35495419 383.30514403 287.37153625 379.6822052 C287.37869156 378.6043576 287.38584686 377.52651001 287.39321899 376.41600037 C287.3959079 375.24344193 287.3985968 374.07088348 287.40136719 372.86279297 C287.40793839 371.61991516 287.41450958 370.37703735 287.42127991 369.09649658 C287.44098915 364.98368078 287.45267609 360.87090392 287.46264648 356.75805664 C287.46669688 355.33771941 287.47081389 353.91738237 287.47499657 352.49704552 C287.49403301 345.82177808 287.50826676 339.14652158 287.51660854 332.47123224 C287.52637272 324.78629341 287.55267706 317.10164323 287.59310943 309.41680604 C287.62334918 303.46330495 287.63808486 297.50988624 287.64138955 291.55630988 C287.64373123 288.00683387 287.65257557 284.45766676 287.67785072 280.9082737 C287.70563622 276.94250047 287.70127631 272.97710191 287.69433594 269.01123047 C287.707146 267.84879318 287.71995605 266.6863559 287.7331543 265.48869324 C287.65171032 252.68125815 282.65151865 244.0807401 274.59155273 234.43383789 C273.30136144 232.88196944 273.30136144 232.88196944 271.22436523 233.11352539 C271.22436523 232.45352539 271.22436523 231.79352539 271.22436523 231.11352539 C269.90436523 230.78352539 268.58436523 230.45352539 267.22436523 230.11352539 C267.22436523 229.45352539 267.22436523 228.79352539 267.22436523 228.11352539 C261.20899158 225.16566597 255.92738862 222.69639699 249.22436523 222.11352539 C248.72936523 221.61852539 248.72936523 221.61852539 248.22436523 221.11352539 C245.26731203 221.0248424 242.33371467 220.99832243 239.37670898 221.01586914 C238.49028214 221.01728409 237.60385529 221.01869904 236.69056702 221.02015686 C233.84763269 221.02577324 231.00477592 221.03832848 228.16186523 221.05102539 C226.23934033 221.05603828 224.31681419 221.06060155 222.39428711 221.06469727 C217.67094974 221.07574798 212.94767066 221.09302356 208.22436523 221.11352539 Z " fill="#F28515" transform="translate(451.775634765625,180.886474609375)"/>
<path d="M0 0 C1.20970459 0.00523682 2.41940918 0.01047363 3.66577148 0.01586914 C4.97094727 0.0190918 6.27612305 0.02231445 7.62084961 0.02563477 C9.00952213 0.03399138 10.39819401 0.04245634 11.78686523 0.05102539 C13.17944179 0.05603873 14.57202005 0.06060193 15.96459961 0.06469727 C19.38456394 0.07653105 22.80444367 0.09301659 26.22436523 0.11352539 C26.22436523 0.77352539 26.22436523 1.43352539 26.22436523 2.11352539 C27.80217773 2.08258789 27.80217773 2.08258789 29.41186523 2.05102539 C32.55141427 2.10249341 35.19319919 2.37869726 38.22436523 3.11352539 C38.22436523 3.77352539 38.22436523 4.43352539 38.22436523 5.11352539 C39.19374023 5.19602539 40.16311523 5.27852539 41.16186523 5.36352539 C45.89555625 6.01343789 49.96420931 8.03657862 54.22436523 10.11352539 C54.22436523 10.77352539 54.22436523 11.43352539 54.22436523 12.11352539 C55.87436523 12.44352539 57.52436523 12.77352539 59.22436523 13.11352539 C59.22436523 13.77352539 59.22436523 14.43352539 59.22436523 15.11352539 C61.20436523 15.60852539 61.20436523 15.60852539 63.22436523 16.11352539 C63.22436523 16.77352539 63.22436523 17.43352539 63.22436523 18.11352539 C63.82249023 18.21665039 64.42061523 18.31977539 65.03686523 18.42602539 C67.53694809 19.21176572 68.59971606 20.08271392 70.22436523 22.11352539 C70.22436523 22.77352539 70.22436523 23.43352539 70.22436523 24.11352539 C70.82249023 24.38165039 71.42061523 24.64977539 72.03686523 24.92602539 C74.22284377 26.11269945 75.63769117 27.20951652 77.22436523 29.11352539 C77.22436523 29.77352539 77.22436523 30.43352539 77.22436523 31.11352539 C77.88436523 31.11352539 78.54436523 31.11352539 79.22436523 31.11352539 C79.55436523 31.77352539 79.88436523 32.43352539 80.22436523 33.11352539 C85.01409733 33.34780852 85.01409733 33.34780852 89.22436523 31.11352539 C96.42206272 28.33259681 103.54438941 27.94995589 111.16186523 27.98852539 C111.92176758 27.9846582 112.68166992 27.98079102 113.46459961 27.97680664 C120.30630735 27.98849188 126.9144486 28.24381171 133.28686523 30.98852539 C134.13249023 31.34946289 134.97811523 31.71040039 135.84936523 32.08227539 C136.63311523 32.42258789 137.41686523 32.76290039 138.22436523 33.11352539 C139.39999023 33.56727539 140.57561523 34.02102539 141.78686523 34.48852539 C150.45387831 38.58565884 157.2907156 44.57850021 164.22436523 51.11352539 C164.79928711 51.6355957 165.37420898 52.15766602 165.96655273 52.69555664 C167.34936523 53.98852539 167.34936523 53.98852539 169.22436523 56.11352539 C169.22436523 57.10352539 169.22436523 58.09352539 169.22436523 59.11352539 C170.21436523 59.44352539 171.20436523 59.77352539 172.22436523 60.11352539 C172.55436523 60.77352539 172.88436523 61.43352539 173.22436523 62.11352539 C176.86391998 63.91059609 180.15190271 64.41165955 184.16186523 64.80102539 C192.07787858 65.89694943 198.34734981 69.25744778 205.22436523 73.11352539 C205.22436523 73.77352539 205.22436523 74.43352539 205.22436523 75.11352539 C206.05967773 75.20633789 206.05967773 75.20633789 206.91186523 75.30102539 C210.22522996 76.46518056 211.92911819 78.50810983 214.22436523 81.11352539 C214.55436523 82.10352539 214.88436523 83.09352539 215.22436523 84.11352539 C216.21436523 84.44352539 217.20436523 84.77352539 218.22436523 85.11352539 C219.41186523 88.17602539 219.41186523 88.17602539 220.22436523 91.11352539 C220.88436523 91.11352539 221.54436523 91.11352539 222.22436523 91.11352539 C227.0326245 97.95531723 228.36752076 104.75208279 229.64624023 112.83227539 C229.87260846 115.95299691 229.87260846 115.95299691 231.22436523 117.11352539 C232.03655414 129.67121543 230.82741196 141.67397165 225.22436523 153.11352539 C224.78092773 154.03520508 224.33749023 154.95688477 223.88061523 155.90649414 C222.16097165 159.2362757 220.2705851 162.3494381 218.22436523 165.48852539 C217.54374023 166.54813477 216.86311523 167.60774414 216.16186523 168.69946289 C215.52249023 169.49610352 214.88311523 170.29274414 214.22436523 171.11352539 C213.23436523 171.11352539 212.24436523 171.11352539 211.22436523 171.11352539 C210.93561523 171.73227539 210.64686523 172.35102539 210.34936523 172.98852539 C209.22436523 175.11352539 209.22436523 175.11352539 207.22436523 177.11352539 C206.91797934 179.84787501 206.71303163 182.4963236 206.59936523 185.23852539 C206.56069336 185.99262695 206.52202148 186.74672852 206.48217773 187.52368164 C206.38785492 189.38655723 206.30501861 191.25000794 206.22436523 193.11352539 C206.88676208 193.10686356 207.54915894 193.10020172 208.23162842 193.09333801 C215.17560941 193.0265561 222.11949797 192.98154816 229.0637207 192.94873047 C231.64937043 192.93371827 234.23499502 192.91330226 236.82055664 192.88720703 C240.55418128 192.85048994 244.2874669 192.83372265 248.02124023 192.82055664 C249.16236267 192.80507278 250.30348511 192.78958893 251.47918701 192.77363586 C262.35841426 192.77139529 272.04068476 194.96429855 281.66186523 200.05102539 C282.32895508 200.38553711 282.99604492 200.72004883 283.68334961 201.06469727 C287.54466356 203.04691482 291.01157968 205.14835337 294.22436523 208.11352539 C294.22436523 208.77352539 294.22436523 209.43352539 294.22436523 210.11352539 C295.54436523 210.44352539 296.86436523 210.77352539 298.22436523 211.11352539 C298.22436523 211.77352539 298.22436523 212.43352539 298.22436523 213.11352539 C299.21436523 213.44352539 300.20436523 213.77352539 301.22436523 214.11352539 C310.62426439 224.41232201 317.45776021 237.10982658 317.22436523 251.11352539 C317.88436523 251.11352539 318.54436523 251.11352539 319.22436523 251.11352539 C319.24769361 268.69806657 319.26534411 286.28260293 319.27617741 303.86715603 C319.28134049 312.03139703 319.28838343 320.19562844 319.29980469 328.35986328 C319.30975114 335.47323823 319.31621857 342.58660624 319.31845373 349.69998795 C319.3197609 353.46878263 319.32284717 357.23755742 319.33009529 361.00634575 C319.33810839 365.20671355 319.3383564 369.40704647 319.33789062 373.60742188 C319.3414859 374.8661763 319.34508118 376.12493073 319.3487854 377.42182922 C319.34741074 378.55911469 319.34603607 379.69640015 319.34461975 380.8681488 C319.34600244 382.36007075 319.34600244 382.36007075 319.34741306 383.88213253 C319.22436523 386.11352539 319.22436523 386.11352539 318.22436523 387.11352539 C317.80792339 389.21371052 317.41683221 391.31893581 317.03686523 393.42602539 C314.17022723 406.96368909 306.6048611 419.82801854 296.22436523 429.11352539 C295.56436523 429.11352539 294.90436523 429.11352539 294.22436523 429.11352539 C293.89436523 430.10352539 293.56436523 431.09352539 293.22436523 432.11352539 C291.16186523 432.80102539 291.16186523 432.80102539 289.22436523 433.11352539 C289.22436523 433.77352539 289.22436523 434.43352539 289.22436523 435.11352539 C287.57436523 435.44352539 285.92436523 435.77352539 284.22436523 436.11352539 C283.89436523 437.10352539 283.56436523 438.09352539 283.22436523 439.11352539 C282.23436523 439.11352539 281.24436523 439.11352539 280.22436523 439.11352539 C280.22436523 439.77352539 280.22436523 440.43352539 280.22436523 441.11352539 C278.66656191 441.79109421 277.10286427 442.45511996 275.53686523 443.11352539 C274.66674805 443.48477539 273.79663086 443.85602539 272.90014648 444.23852539 C270.16716503 445.13223027 268.07735589 445.27802215 265.22436523 445.11352539 C265.22436523 445.77352539 265.22436523 446.43352539 265.22436523 447.11352539 C264.09256836 447.24629883 262.96077148 447.37907227 261.79467773 447.51586914 C260.31288344 447.69405959 258.83111387 447.87245568 257.34936523 448.05102539 C256.60299805 448.13803711 255.85663086 448.22504883 255.08764648 448.31469727 C251.02904214 448.74678602 251.02904214 448.74678602 247.22436523 450.11352539 C245.08159753 450.21109966 242.93575867 450.24429685 240.79077148 450.24633789 C239.50235352 450.24762695 238.21393555 450.24891602 236.88647461 450.25024414 C236.21382568 450.24814941 235.54117676 450.24605469 234.84814453 450.24389648 C232.79834559 450.23855531 230.74876664 450.24384085 228.69897461 450.25024414 C226.76441406 450.24831055 226.76441406 450.24831055 224.79077148 450.24633789 C223.01101929 450.244646 223.01101929 450.244646 221.1953125 450.24291992 C218.22436523 450.11352539 218.22436523 450.11352539 215.22436523 449.11352539 C215.23483887 450.11617432 215.2453125 451.11882324 215.25610352 452.15185547 C215.29269099 455.92216325 215.31540458 459.69245582 215.33422852 463.46289062 C215.3441988 465.08531343 215.35777993 466.70771868 215.37524414 468.33007812 C215.58577849 488.41133939 211.91347579 504.99492549 199.22436523 521.11352539 C198.56436523 521.11352539 197.90436523 521.11352539 197.22436523 521.11352539 C197.05936523 521.79415039 196.89436523 522.47477539 196.72436523 523.17602539 C193.57791257 529.33782852 187.08454822 533.62532123 181.22436523 537.11352539 C180.56436523 537.11352539 179.90436523 537.11352539 179.22436523 537.11352539 C179.22436523 537.77352539 179.22436523 538.43352539 179.22436523 539.11352539 C167.26145698 545.55042019 167.26145698 545.55042019 160.45483398 546.69165039 C158.05860479 547.09354384 158.05860479 547.09354384 155.18300152 548.12359905 C150.67553348 549.41583595 146.31705485 549.39437534 141.65571594 549.3742218 C140.71081761 549.37804735 139.76591928 549.3818729 138.79238766 549.38581437 C135.63594874 549.39610752 132.47969298 549.39215915 129.32324219 549.38818359 C127.05599296 549.39253219 124.78874521 549.39771584 122.52149963 549.40367126 C116.36839553 549.41705894 110.21535286 549.41764 104.06223702 549.41510797 C98.92086773 549.41403775 93.77951083 549.41892312 88.6381442 549.42371339 C75.80988705 549.43544278 62.98167398 549.43458404 50.15341624 549.42815658 C39.03304099 549.42299242 27.91275347 549.43423072 16.79239557 549.4532548 C5.35637786 549.4726678 -6.07958226 549.48059203 -17.51561958 549.47713155 C-23.92890313 549.47532133 -30.3421064 549.47792852 -36.75537682 549.49184608 C-42.79073084 549.50445318 -48.82590992 549.50245293 -54.86126137 549.4894352 C-57.07026861 549.48707587 -59.27928826 549.4897809 -61.48828125 549.49805832 C-82.97990848 549.57275145 -101.13975184 546.05501283 -117.77563477 531.11352539 C-118.12110352 530.39551758 -118.46657227 529.67750977 -118.82250977 528.93774414 C-119.13704102 528.33575195 -119.45157227 527.73375977 -119.77563477 527.11352539 C-121.10628069 526.76962088 -122.43977685 526.43659276 -123.77563477 526.11352539 C-125.15454102 524.37133789 -125.15454102 524.37133789 -126.33813477 522.23852539 C-127.91438988 519.43744253 -129.4612738 517.33887247 -131.77563477 515.11352539 C-133.36477035 512.43708652 -133.77563477 511.29551979 -133.77563477 508.11352539 C-134.43563477 508.11352539 -135.09563477 508.11352539 -135.77563477 508.11352539 C-145.74709172 485.54454076 -142.76079208 460.92729914 -142.15454102 436.84399414 C-142.0896338 434.22846072 -142.02476941 431.61292624 -141.95994568 428.99739075 C-141.82454245 423.55030186 -141.68711364 418.10326639 -141.54882812 412.65625 C-141.38912981 406.36335571 -141.23444184 400.07035106 -141.08196121 393.77727813 C-140.93434569 387.69562094 -140.78165854 381.61410101 -140.62705803 375.53261757 C-140.56216856 372.95337962 -140.49879434 370.37410309 -140.43695259 367.79479027 C-140.3505014 364.20714323 -140.25826977 360.61969007 -140.16455078 357.03222656 C-140.14009384 355.96476196 -140.1156369 354.89729736 -140.09043884 353.79748535 C-140.06382172 352.82361374 -140.03720459 351.84974213 -140.00978088 350.84635925 C-139.98857965 349.99973315 -139.96737841 349.15310705 -139.94553471 348.28082561 C-139.77563477 346.11352539 -139.77563477 346.11352539 -138.77563477 343.11352539 C-138.65415092 341.52897942 -138.58532027 339.94012707 -138.54821777 338.35136414 C-138.52304581 337.37145508 -138.49787384 336.39154602 -138.47193909 335.38194275 C-138.43761024 333.77120628 -138.43761024 333.77120628 -138.40258789 332.12792969 C-138.37478745 330.99596161 -138.346987 329.86399353 -138.31834412 328.69772339 C-138.25847694 326.23579911 -138.20074751 323.77382215 -138.1448822 321.31180382 C-138.05638697 317.41582874 -137.96223653 313.52002712 -137.86657715 309.6242218 C-137.68134098 302.05328716 -137.50263779 294.48220585 -137.32511139 286.91108704 C-137.08406514 276.63103142 -136.84016971 266.35106031 -136.58811951 256.07126808 C-136.49546592 252.2325374 -136.40796945 248.39371118 -136.32067871 244.55485535 C-136.26359213 242.19899916 -136.20627227 239.84314861 -136.14868164 237.48730469 C-136.12579575 236.41955307 -136.10290985 235.35180145 -136.07933044 234.25169373 C-135.95655321 229.43088828 -135.6637409 224.86427451 -134.77563477 220.11352539 C-134.66963326 218.35839228 -134.60154696 216.60058304 -134.5703125 214.8425293 C-134.55036728 213.84194489 -134.53042206 212.84136047 -134.50987244 211.81045532 C-134.49315994 210.74773407 -134.47644745 209.68501282 -134.45922852 208.59008789 C-134.43844742 207.48877533 -134.41766632 206.38746277 -134.39625549 205.2527771 C-134.33107286 201.74808766 -134.2720208 198.24332573 -134.21313477 194.73852539 C-134.16991978 192.35700759 -134.12630455 189.97549702 -134.08227539 187.59399414 C-133.97542364 181.76724699 -133.87360009 175.94042836 -133.77563477 170.11352539 C-134.43563477 170.11352539 -135.09563477 170.11352539 -135.77563477 170.11352539 C-136.76563477 167.63852539 -136.76563477 167.63852539 -137.77563477 165.11352539 C-138.43563477 165.11352539 -139.09563477 165.11352539 -139.77563477 165.11352539 C-142.77563477 160.72891001 -142.77563477 160.72891001 -142.77563477 158.11352539 C-143.43563477 158.11352539 -144.09563477 158.11352539 -144.77563477 158.11352539 C-148.51246242 149.61753044 -151.39757948 141.84214309 -152.45141602 132.52758789 C-152.5199545 130.16697493 -152.5199545 130.16697493 -153.77563477 129.11352539 C-153.8754469 126.43621159 -153.91443352 123.79048365 -153.90063477 121.11352539 C-153.90450195 120.36329102 -153.90836914 119.61305664 -153.91235352 118.84008789 C-153.9022453 113.24013592 -153.9022453 113.24013592 -152.77563477 112.11352539 C-152.46270645 110.37550459 -152.15473204 108.63641539 -151.87451172 106.89282227 C-150.59546763 98.99479216 -148.58758753 92.22515269 -144.77563477 85.11352539 C-144.11563477 85.11352539 -143.45563477 85.11352539 -142.77563477 85.11352539 C-142.6712207 84.55149414 -142.56680664 83.98946289 -142.45922852 83.41040039 C-141.64950241 80.68972068 -140.41360138 78.72094732 -138.83813477 76.36352539 C-138.31348633 75.56430664 -137.78883789 74.76508789 -137.24829102 73.94165039 C-136.76231445 73.33836914 -136.27633789 72.73508789 -135.77563477 72.11352539 C-135.11563477 72.11352539 -134.45563477 72.11352539 -133.77563477 72.11352539 C-133.56938477 71.55149414 -133.36313477 70.98946289 -133.15063477 70.41040039 C-131.28221533 67.28929065 -128.67177531 65.46049508 -125.77563477 63.36352539 C-125.22907227 62.95231445 -124.68250977 62.54110352 -124.11938477 62.11743164 C-120.04764473 59.11352539 -120.04764473 59.11352539 -117.77563477 59.11352539 C-117.77563477 58.45352539 -117.77563477 57.79352539 -117.77563477 57.11352539 C-116.53102694 56.43684541 -115.2796658 55.7725782 -114.02563477 55.11352539 C-113.32954102 54.74227539 -112.63344727 54.37102539 -111.91625977 53.98852539 C-109.77563477 53.11352539 -109.77563477 53.11352539 -105.77563477 53.11352539 C-105.77563477 52.45352539 -105.77563477 51.79352539 -105.77563477 51.11352539 C-104.81850586 50.91436523 -104.81850586 50.91436523 -103.84204102 50.71118164 C-103.01575195 50.53458008 -102.18946289 50.35797852 -101.33813477 50.17602539 C-100.51442383 50.00200195 -99.69071289 49.82797852 -98.84204102 49.64868164 C-96.79902273 49.30599545 -96.79902273 49.30599545 -95.77563477 48.11352539 C-91.57865703 47.25583239 -87.73471876 47.08510334 -83.45532227 47.26196289 C-82.50786133 47.29676758 -81.56040039 47.33157227 -80.58422852 47.36743164 C-78.6195988 47.44852821 -76.65579991 47.55292025 -74.69360352 47.67993164 C-69.43038048 47.99332229 -69.43038048 47.99332229 -65.05395508 45.52856445 C-63.53619388 43.38516188 -63.53619388 43.38516188 -61.77563477 40.11352539 C-61.11563477 40.11352539 -60.45563477 40.11352539 -59.77563477 40.11352539 C-59.73438477 39.43290039 -59.69313477 38.75227539 -59.65063477 38.05102539 C-58.39178692 33.82489333 -55.758845 31.2766277 -52.77563477 28.11352539 C-52.05375977 27.30915039 -51.33188477 26.50477539 -50.58813477 25.67602539 C-48.77563477 24.11352539 -48.77563477 24.11352539 -45.77563477 24.11352539 C-45.54875977 23.49477539 -45.32188477 22.87602539 -45.08813477 22.23852539 C-43.39633642 19.4994233 -41.78319316 19.06328067 -38.77563477 18.11352539 C-38.77563477 17.45352539 -38.77563477 16.79352539 -38.77563477 16.11352539 C-28.89071981 8.89116011 -17.77868634 3.40906791 -5.63891602 1.47290039 C-2.93070826 0.95056263 -3.07255616 0.12566968 0 0 Z M-7.77563477 31.11352539 C-9.10475159 31.46329298 -10.43646216 31.80448556 -11.77563477 32.11352539 C-11.77563477 32.77352539 -11.77563477 33.43352539 -11.77563477 34.11352539 C-12.48977539 34.20375977 -13.20391602 34.29399414 -13.93969727 34.38696289 C-24.76781535 37.16110885 -33.79843261 48.22904901 -39.70922852 57.19555664 C-40.93761649 59.0391053 -40.93761649 59.0391053 -40.77563477 61.11352539 C-41.43563477 61.11352539 -42.09563477 61.11352539 -42.77563477 61.11352539 C-43.02958008 61.84958008 -43.28352539 62.58563477 -43.54516602 63.34399414 C-43.8893457 64.31981445 -44.23352539 65.29563477 -44.58813477 66.30102539 C-44.92458008 67.26395508 -45.26102539 68.22688477 -45.60766602 69.21899414 C-47.4290042 73.73274529 -48.74662083 76.48804633 -52.96313477 79.05102539 C-57.86511542 80.41715115 -59.97124869 79.60997351 -64.77563477 78.11352539 C-66.09563477 78.11352539 -67.41563477 78.11352539 -68.77563477 78.11352539 C-68.77563477 77.45352539 -68.77563477 76.79352539 -68.77563477 76.11352539 C-82.4708243 74.95442732 -95.06542793 74.52604038 -106.77563477 83.11352539 C-106.77563477 83.77352539 -106.77563477 84.43352539 -106.77563477 85.11352539 C-107.37375977 85.40227539 -107.97188477 85.69102539 -108.58813477 85.98852539 C-110.96891268 87.16094565 -110.96891268 87.16094565 -113.77563477 89.11352539 C-113.77563477 89.77352539 -113.77563477 90.43352539 -113.77563477 91.11352539 C-115.26063477 91.60852539 -115.26063477 91.60852539 -116.77563477 92.11352539 C-118.08899059 94.37460345 -119.23531606 96.56623052 -120.33813477 98.92602539 C-120.64170898 99.55573242 -120.9452832 100.18543945 -121.25805664 100.83422852 C-122.10405405 102.59073295 -122.94016363 104.35198986 -123.77563477 106.11352539 C-124.16235352 106.81735352 -124.54907227 107.52118164 -124.94750977 108.24633789 C-128.41996007 116.07573055 -127.3008588 127.40646694 -124.73266602 135.33227539 C-122.67552869 140.54790972 -120.87979738 144.24388635 -116.77563477 148.11352539 C-116.34250977 148.91790039 -115.90938477 149.72227539 -115.46313477 150.55102539 C-113.2106361 153.97148633 -110.32656958 156.10275508 -106.77563477 158.11352539 C-106.11563477 158.11352539 -105.45563477 158.11352539 -104.77563477 158.11352539 C-104.77563477 158.77352539 -104.77563477 159.43352539 -104.77563477 160.11352539 C-102.79563477 160.44352539 -100.81563477 160.77352539 -98.77563477 161.11352539 C-98.77563477 161.77352539 -98.77563477 162.43352539 -98.77563477 163.11352539 C-90.76137559 166.39488507 -83.31078758 166.65271694 -74.71313477 166.80102539 C-73.35698345 166.83426837 -72.00086223 166.86876424 -70.64477539 166.90454102 C-67.3551454 166.98648909 -64.06576422 167.05581501 -60.77563477 167.11352539 C-60.77563477 167.77352539 -60.77563477 168.43352539 -60.77563477 169.11352539 C-59.78563477 169.44352539 -58.79563477 169.77352539 -57.77563477 170.11352539 C-51.15896633 176.89157598 -50.54580625 183.1812875 -50.6003418 192.41616821 C-50.61693848 193.60793671 -50.63353516 194.7997052 -50.65063477 196.02758789 C-50.65820801 197.27422211 -50.66578125 198.52085632 -50.67358398 199.80526733 C-50.69795055 203.78314084 -50.73467942 207.7607976 -50.77563477 211.73852539 C-50.8291936 216.9598737 -50.86905966 222.18106512 -50.90063477 227.40258789 C-50.91723145 228.582211 -50.93382812 229.76183411 -50.95092773 230.97720337 C-51.08518389 246.92086704 -51.08518389 246.92086704 -44.77563477 261.11352539 C-41.73814583 264.20261227 -41.73814583 264.20261227 -37.77563477 265.11352539 C-37.77563477 265.77352539 -37.77563477 266.43352539 -37.77563477 267.11352539 C-31.6362339 270.2485386 -26.18330673 271.38750367 -19.42407227 269.43383789 C-17.51570823 268.72578763 -15.64123451 267.92760528 -13.77563477 267.11352539 C-13.77563477 266.45352539 -13.77563477 265.79352539 -13.77563477 265.11352539 C-12.63868164 264.75194336 -12.63868164 264.75194336 -11.47875977 264.38305664 C-8.36555095 262.92092822 -7.35808203 261.67025203 -5.52563477 258.80102539 C-5.02547852 258.04176758 -4.52532227 257.28250977 -4.01000977 256.50024414 C-1.72170924 252.0757137 -1.64930799 247.71169156 -1.63378906 242.79785156 C-1.62675461 241.54272263 -1.61972015 240.28759369 -1.61247253 238.99443054 C-1.61065664 238.32863165 -1.60884075 237.66283276 -1.60696983 236.97685814 C-1.59975576 234.87805312 -1.58405286 232.77947538 -1.56562805 230.68074036 C-1.51339106 224.71590292 -1.46521874 218.75119409 -1.44970703 212.78613281 C-1.43957841 209.12965153 -1.41013607 205.47375035 -1.36838722 201.81749916 C-1.35614542 200.43140377 -1.35094341 199.04522623 -1.35318565 197.6590786 C-1.36293026 189.66911237 -1.05290247 183.94605691 3.22436523 177.11352539 C3.51495316 176.4259465 3.80554108 175.73836761 4.10493469 175.029953 C5.51296413 172.61945373 6.71095476 172.26885011 9.22436523 171.11352539 C9.90009771 170.76665554 10.57583019 170.41978569 11.27203941 170.06240463 C18.85978285 166.57042521 26.08516386 166.53564977 34.31274414 166.56762695 C35.81174789 166.55887687 37.31074233 166.54838612 38.8097229 166.53630066 C42.85039947 166.50859535 46.89076894 166.50503252 50.93152666 166.50602055 C55.16498107 166.50287805 59.39829986 166.47723217 63.63168335 166.45404053 C71.6353572 166.41357896 79.63894977 166.39316305 87.64271009 166.38006663 C96.76013257 166.36416313 105.87741741 166.32573348 114.9947598 166.28547335 C133.73791801 166.20320922 152.48106303 166.14903299 171.22436523 166.11352539 C171.22436523 165.45352539 171.22436523 164.79352539 171.22436523 164.11352539 C174.19436523 163.78352539 177.16436523 163.45352539 180.22436523 163.11352539 C180.22436523 162.45352539 180.22436523 161.79352539 180.22436523 161.11352539 C180.94624023 161.05165039 181.66811523 160.98977539 182.41186523 160.92602539 C187.98151998 159.31701402 191.31375361 153.9100461 194.89233398 149.56665039 C196.22436523 148.11352539 196.22436523 148.11352539 198.22436523 147.11352539 C203.85223251 137.98955874 204.91440674 127.54267043 203.22436523 117.11352539 C201.77198099 112.66980671 199.83907948 108.97631327 197.22436523 105.11352539 C196.6152832 104.17959961 196.6152832 104.17959961 195.99389648 103.22680664 C192.00228501 97.81837745 185.54238791 94.14248389 179.22436523 92.11352539 C175.86081462 91.61792977 172.48688842 91.3304839 169.09936523 91.05102539 C167.30482366 90.8965876 165.51053594 90.73916319 163.71655273 90.57836914 C162.92619629 90.51254639 162.13583984 90.44672363 161.3215332 90.37890625 C159.22436523 90.11352539 159.22436523 90.11352539 156.22436523 89.11352539 C155.16186523 86.80102539 155.16186523 86.80102539 154.22436523 84.11352539 C153.57222984 82.77302487 152.91056555 81.43691171 152.22436523 80.11352539 C151.56436523 80.11352539 150.90436523 80.11352539 150.22436523 80.11352539 C149.99749023 79.41227539 149.77061523 78.71102539 149.53686523 77.98852539 C147.88595236 74.37224004 145.93348173 72.02582563 143.22436523 69.11352539 C142.56436523 69.11352539 141.90436523 69.11352539 141.22436523 69.11352539 C141.22436523 68.45352539 141.22436523 67.79352539 141.22436523 67.11352539 C130.81034755 59.03536214 119.36683453 55.24316319 106.22436523 56.11352539 C100.26243593 57.00578692 94.80551108 58.88106705 89.22436523 61.11352539 C89.22436523 61.77352539 89.22436523 62.43352539 89.22436523 63.11352539 C87.90436523 63.44352539 86.58436523 63.77352539 85.22436523 64.11352539 C85.22436523 64.77352539 85.22436523 65.43352539 85.22436523 66.11352539 C84.41999023 66.25790039 83.61561523 66.40227539 82.78686523 66.55102539 C80.30332818 66.85487788 80.30332818 66.85487788 79.22436523 68.11352539 C72.20682137 68.81527978 72.20682137 68.81527978 68.59936523 66.23852539 C66.05066024 62.88496619 64.01293236 59.40329346 61.90795898 55.76196289 C59.18698696 51.48164032 55.93643868 47.57478307 52.22436523 44.11352539 C51.56436523 44.11352539 50.90436523 44.11352539 50.22436523 44.11352539 C50.22436523 43.45352539 50.22436523 42.79352539 50.22436523 42.11352539 C48.24949451 40.6955923 46.30412668 39.42262939 44.22436523 38.17602539 C43.63075195 37.81557129 43.03713867 37.45511719 42.42553711 37.08374023 C38.1091098 34.51572431 33.9900368 32.64534839 29.22436523 31.11352539 C28.48573242 30.77450195 27.74709961 30.43547852 26.98608398 30.08618164 C23.52113742 28.86585393 20.17325036 28.61038006 16.53686523 28.42602539 C15.82933105 28.38695068 15.12179687 28.34787598 14.39282227 28.30761719 C6.63123089 27.94387556 -0.44718115 28.32173354 -7.77563477 31.11352539 Z M-107.77563477 189.11352539 C-108.10563477 203.30352539 -108.43563477 217.49352539 -108.77563477 232.11352539 C-103.86688477 232.29915039 -98.95813477 232.48477539 -93.90063477 232.67602539 C-91.57863037 232.76799194 -91.57863037 232.76799194 -89.2097168 232.86181641 C-87.99654785 232.90491943 -86.78337891 232.94802246 -85.53344727 232.99243164 C-84.28708496 233.03956299 -83.04072266 233.08669434 -81.7565918 233.13525391 C-78.84735331 233.33300229 -78.84735331 233.33300229 -76.77563477 232.11352539 C-76.75095559 226.88078152 -76.73278474 221.64807136 -76.72070312 216.4152832 C-76.71566766 214.63435272 -76.70883896 212.85342639 -76.70019531 211.07250977 C-76.68809535 208.51585874 -76.68239867 205.95926227 -76.67797852 203.40258789 C-76.67281723 202.60358063 -76.66765594 201.80457336 -76.66233826 200.98135376 C-76.56224726 196.91660634 -76.56224726 196.91660634 -77.77563477 193.11352539 C-85.03563477 192.78352539 -92.29563477 192.45352539 -99.77563477 192.11352539 C-99.77563477 191.45352539 -99.77563477 190.79352539 -99.77563477 190.11352539 C-102.41563477 189.78352539 -105.05563477 189.45352539 -107.77563477 189.11352539 Z M178.22436523 190.11352539 C178.22436523 190.77352539 178.22436523 191.43352539 178.22436523 192.11352539 C177.06892354 192.1121427 177.06892354 192.1121427 175.89013958 192.11073208 C157.1624581 192.08866472 138.43477921 192.0721079 119.70708752 192.06171322 C110.65058615 192.05655305 101.59409346 192.04951564 92.53759766 192.03808594 C84.64558971 192.0281306 76.75358804 192.02166993 68.86157399 192.0194369 C64.68135604 192.01813124 60.50115604 192.0150545 56.32094383 192.00779533 C52.38859078 192.00102174 48.45626313 191.99891118 44.5239048 192.00041771 C43.07869962 192.00014199 41.63349361 191.99814479 40.18829346 191.99431992 C38.21877147 191.98936187 36.24923593 191.99113271 34.27970886 191.99327087 C32.62462956 191.99188818 32.62462956 191.99188818 30.93611431 191.99047756 C28.12706706 191.99434718 28.12706706 191.99434718 25.22436523 193.11352539 C25.22436523 205.98352539 25.22436523 218.85352539 25.22436523 232.11352539 C35.20411408 232.77884198 44.90811774 233.23724834 54.87060547 233.13525391 C56.26195949 233.12507294 57.65331717 233.11538364 59.04467773 233.10614014 C62.76892902 233.08004036 66.49309182 233.04719009 70.21727633 233.01299024 C74.12895611 232.9782624 78.04068252 232.94993343 81.95240784 232.92088318 C89.3361779 232.86509738 96.71988958 232.80367888 104.10359675 232.74016184 C112.5197118 232.66804355 120.93587314 232.60231854 129.35204399 232.53709137 C146.64287827 232.40294242 163.93363865 232.26089207 181.22436523 232.11352539 C181.24903991 226.45353516 181.26721312 220.79357607 181.27929688 215.13354492 C181.2843331 213.20710708 181.29116235 211.28067308 181.29980469 209.35424805 C181.31190131 206.58910171 181.31760056 203.82400581 181.32202148 201.05883789 C181.32718277 200.19420929 181.33234406 199.32958069 181.33766174 198.43875122 C181.46820412 194.14101537 181.46820412 194.14101537 180.22436523 190.11352539 C179.56436523 190.11352539 178.90436523 190.11352539 178.22436523 190.11352539 Z M208.22436523 221.11352539 C207.06024448 223.4417669 207.15241781 224.59191228 207.26269531 227.1730957 C207.2964325 228.03424988 207.33016968 228.89540405 207.3649292 229.78265381 C207.4074884 230.74262268 207.45004761 231.70259155 207.49389648 232.69165039 C207.57825387 234.84333169 207.66230106 236.99502516 207.74609375 239.14672852 C207.7933963 240.31598877 207.84069885 241.48524902 207.88943481 242.68994141 C208.14820478 249.13781843 208.38774803 255.58633962 208.61499023 262.03540039 C208.64006716 262.7470636 208.66514408 263.45872681 208.69098091 264.19195557 C209.17261739 278.06427376 209.4868199 291.93904895 209.77124023 305.81665039 C209.79309072 306.87882027 209.81494122 307.94099014 209.83745384 309.03534698 C210.05755149 319.78720955 210.26786 330.53923372 210.46723747 341.29150009 C210.54350974 345.36122232 210.6233397 349.43087021 210.70381927 353.50051117 C210.75858297 356.34601053 210.80796497 359.19157152 210.85723877 362.03717041 C210.89086132 363.75077888 210.92476006 365.46438196 210.95898438 367.17797852 C210.97095258 367.95875385 210.98292078 368.73952919 210.99525166 369.54396439 C211.00677599 373.45768936 211.00677599 373.45768936 212.22436523 377.11352539 C212.36968487 378.50089449 212.46036072 379.89422251 212.52148438 381.2878418 C212.56145035 382.14858307 212.60141632 383.00932434 212.64259338 383.89614868 C212.68117966 384.82639862 212.71976593 385.75664856 212.75952148 386.71508789 C212.80249863 387.66668793 212.84547577 388.61828796 212.88975525 389.59872437 C213.02636327 392.64515358 213.1566824 395.69181549 213.28686523 398.73852539 C213.37824877 400.80104375 213.47004041 402.86354406 213.56225586 404.92602539 C213.78769907 409.98832805 214.00750158 415.05084823 214.22436523 420.11352539 C240.48881247 421.76227988 240.48881247 421.76227988 265.22436523 415.11352539 C265.22436523 414.45352539 265.22436523 413.79352539 265.22436523 413.11352539 C265.79928711 413.01555664 266.37420898 412.91758789 266.96655273 412.81665039 C271.18003276 411.50449398 274.2226606 408.25407539 277.22436523 405.11352539 C278.75570902 402.39525747 278.75570902 402.39525747 279.22436523 400.11352539 C279.88436523 400.11352539 280.54436523 400.11352539 281.22436523 400.11352539 C283.51481538 395.30142638 283.51481538 395.30142638 284.22436523 390.11352539 C284.88436523 390.11352539 285.54436523 390.11352539 286.22436523 390.11352539 C287.02757043 386.57776225 287.35495419 383.30514403 287.37153625 379.6822052 C287.37869156 378.6043576 287.38584686 377.52651001 287.39321899 376.41600037 C287.3959079 375.24344193 287.3985968 374.07088348 287.40136719 372.86279297 C287.40793839 371.61991516 287.41450958 370.37703735 287.42127991 369.09649658 C287.44098915 364.98368078 287.45267609 360.87090392 287.46264648 356.75805664 C287.46669688 355.33771941 287.47081389 353.91738237 287.47499657 352.49704552 C287.49403301 345.82177808 287.50826676 339.14652158 287.51660854 332.47123224 C287.52637272 324.78629341 287.55267706 317.10164323 287.59310943 309.41680604 C287.62334918 303.46330495 287.63808486 297.50988624 287.64138955 291.55630988 C287.64373123 288.00683387 287.65257557 284.45766676 287.67785072 280.9082737 C287.70563622 276.94250047 287.70127631 272.97710191 287.69433594 269.01123047 C287.707146 267.84879318 287.71995605 266.6863559 287.7331543 265.48869324 C287.65171032 252.68125815 282.65151865 244.0807401 274.59155273 234.43383789 C273.30136144 232.88196944 273.30136144 232.88196944 271.22436523 233.11352539 C271.22436523 232.45352539 271.22436523 231.79352539 271.22436523 231.11352539 C269.90436523 230.78352539 268.58436523 230.45352539 267.22436523 230.11352539 C267.22436523 229.45352539 267.22436523 228.79352539 267.22436523 228.11352539 C261.20899158 225.16566597 255.92738862 222.69639699 249.22436523 222.11352539 C248.72936523 221.61852539 248.72936523 221.61852539 248.22436523 221.11352539 C245.26731203 221.0248424 242.33371467 220.99832243 239.37670898 221.01586914 C238.49028214 221.01728409 237.60385529 221.01869904 236.69056702 221.02015686 C233.84763269 221.02577324 231.00477592 221.03832848 228.16186523 221.05102539 C226.23934033 221.05603828 224.31681419 221.06060155 222.39428711 221.06469727 C217.67094974 221.07574798 212.94767066 221.09302356 208.22436523 221.11352539 Z M-110.77563477 234.11352539 C-111.56501783 260.78582079 -112.34789454 287.45829863 -113.12254333 314.13102627 C-113.48252162 326.52039064 -113.84465088 338.90968461 -114.2121582 351.29882812 C-114.53311082 362.11874834 -114.84970784 372.93878652 -115.16143703 383.75897652 C-115.3260726 389.46856243 -115.49264152 395.1780746 -115.66445923 400.88744926 C-116.09691601 415.29491668 -116.48592901 429.70242364 -116.77563477 444.11352539 C-116.79565804 445.09421195 -116.8156813 446.0748985 -116.83631134 447.08530283 C-116.94947765 452.83006318 -117.03481147 458.57419864 -117.08210182 464.31988919 C-117.09882239 466.06294712 -117.12213201 467.80595748 -117.15283775 469.54882514 C-117.4157405 485.26349025 -114.62392741 498.29532375 -103.74438477 510.36743164 C-93.54526292 520.10463673 -81.27367289 524.4366789 -67.39044189 524.3742218 C-66.47735756 524.37804735 -65.56427322 524.3818729 -64.62351966 524.38581437 C-61.58074072 524.39608764 -58.53815248 524.39216299 -55.49536133 524.38818359 C-53.30678127 524.39253327 -51.11820274 524.39771727 -48.92962646 524.40367126 C-42.99558222 524.41704661 -37.06160173 524.41764143 -31.12754536 524.41510797 C-26.16755467 524.41403703 -21.20757681 524.4189249 -16.24758887 524.42371339 C-3.87219224 524.43543775 8.50317302 524.43458644 20.87857154 524.42815658 C30.93755309 524.42331257 40.99645413 524.4318739 51.05541992 524.44970703 C62.75605362 524.47037615 74.45663124 524.48080085 86.15728402 524.47713155 C92.34363495 524.47532183 98.52990264 524.47792363 104.71623993 524.49184608 C110.53738688 524.50445659 116.35835248 524.50244975 122.17949677 524.4894352 C124.30948957 524.4870767 126.43949526 524.48977788 128.56947327 524.49805832 C146.52412675 524.56279551 162.42329927 523.24476331 176.12280273 510.34399414 C189.36938308 496.28489121 191.64536202 479.90271531 191.18128359 461.33392549 C191.10098109 458.66492901 191.00888657 455.99648438 190.91650391 453.32788086 C190.85826013 451.38263 190.80109647 449.43734654 190.74491882 447.49203491 C190.59040968 442.24696012 190.42088859 437.00246891 190.24851012 431.75795507 C190.06934508 426.22783071 189.90416235 420.69728775 189.73738098 415.16677856 C189.41900496 404.67941944 189.08808495 394.19249533 188.75264961 383.70566952 C188.37500191 371.87914789 188.01182459 360.05219612 187.64969289 348.22519088 C186.9398328 325.06115097 186.22044781 301.89741346 185.46968323 278.73465979 C185.3130235 273.89490362 185.15998723 269.05506072 185.01155514 264.21504533 C184.94742729 262.13816722 184.88168151 260.06134819 184.81518269 257.98454475 C184.73810753 255.57574183 184.66357116 253.1668554 184.59237194 250.75787163 C184.54106609 249.19672221 184.54106609 249.19672221 184.48872375 247.60403442 C184.46148885 246.72689852 184.43425394 245.84976261 184.40619373 244.94604683 C184.17350601 241.32124113 183.67489245 237.71774308 183.22436523 234.11352539 C130.75436523 234.11352539 78.28436523 234.11352539 24.22436523 234.11352539 C23.89436523 239.39352539 23.56436523 244.67352539 23.22436523 250.11352539 C20.23893514 265.33921886 13.96013699 276.5268864 1.41186523 285.98852539 C-10.14064541 293.5592588 -23.48536509 295.50907932 -36.90844727 292.82446289 C-49.3697869 289.73459393 -60.3071975 282.82269373 -67.31079102 271.86352539 C-73.99584957 259.31344213 -74.87288764 248.55747936 -75.77563477 234.11352539 C-87.32563477 234.11352539 -98.87563477 234.11352539 -110.77563477 234.11352539 Z " fill="#FBFBFB" transform="translate(451.775634765625,180.886474609375)"/>
<path d="M0 0 C4.20163287 2.06891684 6.48563335 4.89810055 8.33203125 9.171875 C9.77084848 14.5390419 8.68545491 18.92163384 6.17578125 23.76171875 C2.94188384 27.53459906 0.40368879 28.99632808 -4.38671875 30.26171875 C-9.52570905 30.43592181 -13.80330726 29.49502176 -17.65625 25.91796875 C-21.53656468 21.35552382 -22.37297627 18.5118224 -22.2890625 12.703125 C-21.85060575 7.97576404 -19.96974857 5.19487981 -16.51171875 2.07421875 C-11.46429747 -1.42014983 -5.91734385 -1.74957247 0 0 Z " fill="#FFFFFF" transform="translate(568.07421875,468.61328125)"/>
<path d="M0 0 C4.07373069 2.393223 7.08641032 4.54439449 8.87109375 9.05859375 C10.2716963 14.75437743 10.10869251 18.18145973 7.1640625 23.296875 C4.26377603 27.24862485 0.70541914 29.1074947 -4.00390625 30.05859375 C-8.75823583 30.44112601 -12.29758441 28.7685531 -16.12890625 26.05859375 C-19.59241069 22.4174737 -20.99773665 19.79659097 -21.37890625 14.74609375 C-21.06425033 10.10491887 -20.01531586 6.97077398 -16.69921875 3.609375 C-11.74485128 -0.69180472 -6.36562588 -2.81489144 0 0 Z " fill="#FFFFFF" transform="translate(430.12890625,562.94140625)"/>
<path d="M0 0 C3.24542148 2.26424754 5.39062557 3.98925942 6.75 7.8125 C7.41223223 12.80858114 7.33028647 16.60728964 5.125 21.1875 C1.07910062 25.65928352 -2.09331572 28.03283791 -8.1875 28.375 C-13.37790202 28.14049388 -16.74070431 26.65231108 -20.25 22.8125 C-23.11282188 18.16041444 -23.78197082 14.33052671 -22.95703125 9.02734375 C-21.41325458 4.19131408 -18.11470465 0.91219761 -13.8125 -1.625 C-8.48094425 -2.79534151 -4.74606379 -2.76926291 0 0 Z " fill="#FFFFFF" transform="translate(496.25,517.1875)"/>
<path d="M0 0 C4.83795463 2.59797141 7.37950659 5.08773853 9.09765625 10.2421875 C9.68466558 16.34708452 8.56220604 19.3730905 5.09765625 24.2421875 C1.62765733 26.98166033 -1.48747446 28.06905537 -5.90234375 28.2421875 C-10.30232482 27.28900011 -13.21693631 25.96274404 -16.33984375 22.6796875 C-19.38704876 17.92604768 -19.79632363 13.83165051 -18.90234375 8.2421875 C-14.98418707 1.23545129 -8.0950334 -3.22471556 0 0 Z " fill="#FFFFFF" transform="translate(549.90234375,589.7578125)"/>
<path d="M0 0 C1.06743628 0.00184359 2.13487255 0.00368717 3.23465538 0.00558662 C4.45745705 0.0028373 5.68025871 0.00008797 6.94011497 -0.00274467 C8.30240537 0.00433406 9.66469479 0.01160369 11.02698326 0.01904488 C12.45583145 0.01960878 13.88468021 0.01929284 15.31352806 0.01815987 C19.19969977 0.01758453 23.08574876 0.02936791 26.97189188 0.04330778 C31.03048174 0.05578518 35.08907421 0.05698327 39.14768028 0.0593586 C46.8364474 0.06558219 54.52515784 0.08200485 62.21389997 0.10205758 C70.96588795 0.12438929 79.7178786 0.13540313 88.46988797 0.14544845 C106.47641935 0.16637034 124.48289793 0.20156334 142.4893856 0.24609566 C142.4893856 0.90609566 142.4893856 1.56609566 142.4893856 2.24609566 C139.97742299 3.50207696 138.27118084 3.37193768 135.45920372 3.3730793 C134.39415108 3.37589912 133.32909843 3.37871895 132.23177147 3.38162422 C131.05785347 3.37959999 129.88393547 3.37757576 128.6744442 3.37549019 C126.82524124 3.37811867 126.82524124 3.37811867 124.93868065 3.38080025 C121.5473157 3.38445747 118.15601147 3.38358414 114.76464987 3.38042116 C111.20468343 3.37788864 107.64471958 3.38023832 104.08475304 3.38180733 C98.09071959 3.38362972 92.09669843 3.38122435 86.10266685 3.37646675 C79.21036955 3.3710587 72.31810199 3.37276112 65.42580545 3.37829316 C59.4901051 3.38286405 53.55441361 3.38345452 47.61871207 3.38085449 C44.0825398 3.37930893 40.54638137 3.37904931 37.01021004 3.38239098 C8.78789844 3.40552777 8.78789844 3.40552777 -4.5106144 2.24609566 C-2.5106144 0.24609566 -2.5106144 0.24609566 0 0 Z " fill="#BEBDBC" transform="translate(480.5106143951416,370.75390434265137)"/>
<path d="M0 0 C0 3 0 3 -1.42578125 4.5 C-2.04839844 4.995 -2.67101562 5.49 -3.3125 6 C-5.67486744 7.90178008 -7.89016786 9.81875816 -10 12 C-10.66 11.34 -11.32 10.68 -12 10 C-4.75 0.67857143 -4.75 0.67857143 0 0 Z " fill="#C7C5C4" transform="translate(407,204)"/>
<path d="M0 0 C3.07057113 4.05583227 6.01200405 8.20180914 8.96484375 12.34375 C10.83142272 14.77997591 12.7765709 16.89097553 15 19 C14.01 19 13.02 19 12 19 C12 18.34 12 17.68 12 17 C11.42765625 16.78085937 10.8553125 16.56171875 10.265625 16.3359375 C7.27717273 14.57378116 5.77876678 12.42770374 3.75 9.625 C2.69039063 8.19027344 2.69039063 8.19027344 1.609375 6.7265625 C0 4 0 4 0 0 Z " fill="#DB8815" transform="translate(380,446)"/>
<path d="M0 0 C0 0.66 0 1.32 0 2 C-2 4 -2 4 -4 5 C-4.33 5.99 -4.66 6.98 -5 8 C-6.62652316 9.70586575 -8.29006566 11.3777546 -10 13 C-10.66 12.67 -11.32 12.34 -12 12 C-10.56869725 8.83831632 -8.82485862 6.37725517 -6.5625 3.75 C-5.96566406 3.04359375 -5.36882813 2.3371875 -4.75390625 1.609375 C-3 0 -3 0 0 0 Z " fill="#D8D7D6" transform="translate(651,328)"/>
<path d="M0 0 C0.99 0.66 1.98 1.32 3 2 C2.113125 2.53625 1.22625 3.0725 0.3125 3.625 C-3.18288216 5.93311458 -5.44874658 8.69837793 -8 12 C-8.8125 10.3125 -8.8125 10.3125 -9 8 C-6.32764159 4.86952301 -3.35980991 2.36431068 0 0 Z " fill="#CFCFCE" transform="translate(463,350)"/>
<path d="M0 0 C0 0.66 0 1.32 0 2 C-0.66 2 -1.32 2 -2 2 C-2 2.66 -2 3.32 -2 4 C-3.32 4.33 -4.64 4.66 -6 5 C-6 5.66 -6 6.32 -6 7 C-8.64 7.33 -11.28 7.66 -14 8 C-12.67306301 6.99152789 -11.33743723 5.99450461 -10 5 C-9.4328125 4.566875 -8.865625 4.13375 -8.28125 3.6875 C-7.6728125 3.23375 -7.064375 2.78 -6.4375 2.3125 C-5.56931641 1.65701172 -5.56931641 1.65701172 -4.68359375 0.98828125 C-3 0 -3 0 0 0 Z " fill="#B6B5B5" transform="translate(543,240)"/>
<path d="M0 0 C0.99 0.66 1.98 1.32 3 2 C2.34 2 1.68 2 1 2 C1 2.66 1 3.32 1 4 C-0.32 4 -1.64 4 -3 4 C-3 4.66 -3 5.32 -3 6 C-4.62626404 7.38232443 -6.2925002 8.71937515 -8 10 C-8.33 9.01 -8.66 8.02 -9 7 C-8.01 6.67 -7.02 6.34 -6 6 C-6 5.34 -6 4.68 -6 4 C-4.03852126 2.61061923 -2.03833424 1.2739589 0 0 Z " fill="#D6D5D4" transform="translate(419,193)"/>
<path d="M0 0 C4.83256305 0.41421969 6.82679218 2.46413986 10 6 C6.62972148 6 5.93297304 5.50175992 3.3125 3.5625 C2.68988281 3.11003906 2.06726563 2.65757812 1.42578125 2.19140625 C0.95527344 1.79824219 0.48476563 1.40507812 0 1 C0 0.67 0 0.34 0 0 Z " fill="#D0CECD" transform="translate(638,276)"/>
<path d="M0 0 C2.64752004 2.57784846 4.94432065 4.91648098 7 8 C5.68 8 4.36 8 3 8 C0.82542733 5.12645755 0 3.63563409 0 0 Z " fill="#C0BFBE" transform="translate(605,262)"/>
<path d="M0 0 C2.97 0.33 5.94 0.66 9 1 C8.67 1.66 8.34 2.32 8 3 C5.36 3 2.72 3 0 3 C0 2.01 0 1.02 0 0 Z " fill="#E7E7E7" transform="translate(523,247)"/>
<path d="M0 0 C0.66 0.33 1.32 0.66 2 1 C0.8125 3 0.8125 3 -1 5 C-3.6875 5.25 -3.6875 5.25 -6 5 C-5.34 4.67 -4.68 4.34 -4 4 C-3.67 3.34 -3.34 2.68 -3 2 C-2.01 1.34 -1.02 0.68 0 0 Z " fill="#BCBBBA" transform="translate(349,259)"/>
<path d="M0 0 C4.10801767 1.18676066 5.89448334 1.89448334 9 5 C4.545 4.01 4.545 4.01 0 3 C0 2.01 0 1.02 0 0 Z " fill="#B1B0AF" transform="translate(578,238)"/>
<path d="M0 0 C0.66 0.33 1.32 0.66 2 1 C1.6875 2.9375 1.6875 2.9375 1 5 C0.01 5.33 -0.98 5.66 -2 6 C-2 3 -2 3 0 0 Z " fill="#DFDEDD" transform="translate(398,210)"/>
</svg>
